<svg width="642" height="122" viewBox="0 0 642 122" fill="none" xmlns="http://www.w3.org/2000/svg">
<path d="M61 61H0V0C33.6856 0.0677778 61 27.3822 61 61Z" fill="#F7413D"/>
<path d="M61 0V61H122C122 27.3822 94.6856 0 61 0Z" fill="#F7413D"/>
<path d="M0 61V122H61C61 88.3822 33.6856 61 0 61Z" fill="#F7413D"/>
<path d="M61 61V122H122C122 88.3822 94.6856 61 61 61Z" fill="#F7413D"/>
<path d="M182 120.03V7.38896H241.19C249.497 7.38896 256.383 8.81202 261.849 11.6581C267.314 14.5043 271.413 18.5545 274.146 23.8089C276.879 29.0633 278.245 35.2481 278.245 42.3634C278.245 49.6976 276.605 56.2109 273.326 61.9031C270.047 67.4859 265.237 71.7003 258.897 74.5464L282.18 120.03H258.897L238.238 78.1588H203.315V120.03H182ZM203.315 60.2611H239.55C245.016 60.2611 249.224 58.6738 252.175 55.4993C255.126 52.3248 256.602 47.9462 256.602 42.3634C256.602 38.751 255.946 35.7407 254.635 33.3324C253.323 30.8147 251.41 28.8991 248.896 27.5855C246.382 26.2719 243.267 25.6151 239.55 25.6151H203.315V60.2611Z" fill="#201D1D"/>
<path d="M329.759 122C320.358 122 312.488 120.413 306.148 117.238C299.809 113.954 295.054 108.974 291.884 102.296C288.714 95.6187 287.129 87.135 287.129 76.8452C287.129 66.4459 288.714 57.9623 291.884 51.3943C295.054 44.7169 299.809 39.7909 306.148 36.6164C312.488 33.3324 320.358 31.6904 329.759 31.6904C339.269 31.6904 347.139 33.3324 353.369 36.6164C359.709 39.7909 364.464 44.7169 367.634 51.3943C370.804 57.9623 372.389 66.4459 372.389 76.8452C372.389 87.135 370.804 95.6187 367.634 102.296C364.464 108.974 359.709 113.954 353.369 117.238C347.139 120.413 339.269 122 329.759 122ZM329.759 105.58C335.006 105.58 339.214 104.595 342.384 102.624C345.663 100.545 348.013 97.4796 349.434 93.4293C350.964 89.2696 351.73 84.1247 351.73 77.9946V75.6958C351.73 69.5657 350.964 64.4755 349.434 60.4253C348.013 56.2656 345.663 53.2005 342.384 51.2301C339.214 49.1503 335.006 48.1104 329.759 48.1104C324.512 48.1104 320.249 49.1503 316.97 51.2301C313.8 53.2005 311.45 56.2656 309.92 60.4253C308.499 64.4755 307.788 69.5657 307.788 75.6958V77.9946C307.788 84.1247 308.499 89.2696 309.92 93.4293C311.45 97.4796 313.8 100.545 316.97 102.624C320.249 104.595 324.512 105.58 329.759 105.58Z" fill="#201D1D"/>
<path d="M423.021 122C413.621 122 405.751 120.413 399.411 117.238C393.071 113.954 388.316 108.974 385.146 102.296C381.976 95.6187 380.391 87.135 380.391 76.8452C380.391 66.4459 381.976 57.9623 385.146 51.3943C388.316 44.7169 393.071 39.7909 399.411 36.6164C405.751 33.3324 413.621 31.6904 423.021 31.6904C432.531 31.6904 440.401 33.3324 446.632 36.6164C452.971 39.7909 457.726 44.7169 460.896 51.3943C464.066 57.9623 465.651 66.4459 465.651 76.8452C465.651 87.135 464.066 95.6187 460.896 102.296C457.726 108.974 452.971 113.954 446.632 117.238C440.401 120.413 432.531 122 423.021 122ZM423.021 105.58C428.268 105.58 432.476 104.595 435.646 102.624C438.925 100.545 441.276 97.4796 442.697 93.4293C444.227 89.2696 444.992 84.1247 444.992 77.9946V75.6958C444.992 69.5657 444.227 64.4755 442.697 60.4253C441.276 56.2656 438.925 53.2005 435.646 51.2301C432.476 49.1503 428.268 48.1104 423.021 48.1104C417.774 48.1104 413.512 49.1503 410.232 51.2301C407.062 53.2005 404.712 56.2656 403.182 60.4253C401.761 64.4755 401.051 69.5657 401.051 75.6958V77.9946C401.051 84.1247 401.761 89.2696 403.182 93.4293C404.712 97.4796 407.062 100.545 410.232 102.624C413.512 104.595 417.774 105.58 423.021 105.58Z" fill="#201D1D"/>
<path d="M482.016 120.03V50.0807H469.555V33.6608H482.016V22.6595C482.016 18.8282 482.617 15.2158 483.819 11.8223C485.131 8.31942 487.372 5.4733 490.542 3.28398C493.712 1.09466 498.139 0 503.823 0C505.462 0 507.102 0.109465 508.741 0.328394C510.49 0.547324 512.13 0.875721 513.66 1.31359C515.191 1.64199 516.502 2.02512 517.595 2.46299V16.4199H509.397C506.993 16.4199 505.134 17.0767 503.823 18.3903C502.62 19.5944 502.019 21.4006 502.019 23.8089V33.6608H517.595V50.0807H502.019V120.03H482.016ZM528.253 20.3607V1.31359H548.256V20.3607H528.253ZM528.253 120.03V33.6608H548.256V120.03H528.253Z" fill="#201D1D"/>
<path d="M555.757 120.03L586.581 75.5316L557.888 33.6608H582.154L599.206 60.4253H600.19L617.57 33.6608H640.36L611.503 75.039L642 120.03H618.062L598.878 90.1454H597.895L578.547 120.03H555.757Z" fill="#201D1D"/>
</svg>
