<svg width="127" height="25" viewBox="0 0 127 25" fill="none" xmlns="http://www.w3.org/2000/svg">
<path d="M12 12.5H0V0.5C6.62667 0.513333 12 5.88667 12 12.5Z" fill="white"/>
<path d="M12 0.5V12.5H24C24 5.88667 18.6267 0.5 12 0.5Z" fill="white"/>
<path d="M0 12.5V24.5H12C12 17.8867 6.62667 12.5 0 12.5Z" fill="white"/>
<path d="M12 12.5V24.5H24C24 17.8867 18.6267 12.5 12 12.5Z" fill="white"/>
<path d="M36 24.1124V1.95357H47.6608C49.2974 1.95357 50.6541 2.23351 51.7308 2.7934C52.8075 3.3533 53.6151 4.15007 54.1534 5.18371C54.6918 6.21736 54.961 7.43405 54.961 8.83378C54.961 10.2766 54.638 11.5579 53.9919 12.6777C53.3459 13.7759 52.3984 14.605 51.1494 15.1649L55.7362 24.1124H51.1494L47.0794 15.8755H40.1992V24.1124H36ZM40.1992 12.3546H47.3378C48.4145 12.3546 49.2436 12.0424 49.825 11.4179C50.4065 10.7934 50.6972 9.93203 50.6972 8.83378C50.6972 8.12315 50.568 7.53095 50.3096 7.0572C50.0511 6.56191 49.6743 6.18506 49.179 5.92665C48.6837 5.66824 48.07 5.53903 47.3378 5.53903H40.1992V12.3546Z" fill="white"/>
<path d="M65.1096 24.5C63.2577 24.5 61.7072 24.1878 60.4582 23.5633C59.2092 22.9172 58.2725 21.9374 57.648 20.6238C57.0235 19.3102 56.7112 17.6413 56.7112 15.6171C56.7112 13.5713 57.0235 11.9024 57.648 10.6104C58.2725 9.29677 59.2092 8.32772 60.4582 7.70323C61.7072 7.0572 63.2577 6.73418 65.1096 6.73418C66.9831 6.73418 68.5336 7.0572 69.761 7.70323C71.01 8.32772 71.9468 9.29677 72.5713 10.6104C73.1957 11.9024 73.508 13.5713 73.508 15.6171C73.508 17.6413 73.1957 19.3102 72.5713 20.6238C71.9468 21.9374 71.01 22.9172 69.761 23.5633C68.5336 24.1878 66.9831 24.5 65.1096 24.5ZM65.1096 21.2698C66.1433 21.2698 66.9723 21.076 67.5968 20.6884C68.2429 20.2793 68.7058 19.6763 68.9858 18.8795C69.2873 18.0612 69.438 17.0491 69.438 15.8432V15.391C69.438 14.1851 69.2873 13.1837 68.9858 12.3869C68.7058 11.5686 68.2429 10.9657 67.5968 10.5781C66.9723 10.1689 66.1433 9.96433 65.1096 9.96433C64.076 9.96433 63.2361 10.1689 62.5901 10.5781C61.9656 10.9657 61.5026 11.5686 61.2011 12.3869C60.9212 13.1837 60.7812 14.1851 60.7812 15.391V15.8432C60.7812 17.0491 60.9212 18.0612 61.2011 18.8795C61.5026 19.6763 61.9656 20.2793 62.5901 20.6884C63.2361 21.076 64.076 21.2698 65.1096 21.2698Z" fill="white"/>
<path d="M83.483 24.5C81.6311 24.5 80.0806 24.1878 78.8316 23.5633C77.5826 22.9172 76.6459 21.9374 76.0214 20.6238C75.3969 19.3102 75.0846 17.6413 75.0846 15.6171C75.0846 13.5713 75.3969 11.9024 76.0214 10.6104C76.6459 9.29677 77.5826 8.32772 78.8316 7.70323C80.0806 7.0572 81.6311 6.73418 83.483 6.73418C85.3565 6.73418 86.907 7.0572 88.1344 7.70323C89.3834 8.32772 90.3202 9.29677 90.9447 10.6104C91.5692 11.9024 91.8814 13.5713 91.8814 15.6171C91.8814 17.6413 91.5692 19.3102 90.9447 20.6238C90.3202 21.9374 89.3834 22.9172 88.1344 23.5633C86.907 24.1878 85.3565 24.5 83.483 24.5ZM83.483 21.2698C84.5167 21.2698 85.3457 21.076 85.9702 20.6884C86.6163 20.2793 87.0792 19.6763 87.3592 18.8795C87.6607 18.0612 87.8114 17.0491 87.8114 15.8432V15.391C87.8114 14.1851 87.6607 13.1837 87.3592 12.3869C87.0792 11.5686 86.6163 10.9657 85.9702 10.5781C85.3457 10.1689 84.5167 9.96433 83.483 9.96433C82.4494 9.96433 81.6095 10.1689 80.9635 10.5781C80.339 10.9657 79.876 11.5686 79.5745 12.3869C79.2946 13.1837 79.1546 14.1851 79.1546 15.391V15.8432C79.1546 17.0491 79.2946 18.0612 79.5745 18.8795C79.876 19.6763 80.339 20.2793 80.9635 20.6884C81.6095 21.076 82.4494 21.2698 83.483 21.2698Z" fill="white"/>
<path d="M95.1054 24.1124V10.3519H92.6505V7.1218H95.1054V4.9576C95.1054 4.2039 95.2239 3.49327 95.4607 2.82571C95.7191 2.13661 96.1606 1.57671 96.7851 1.14603C97.4096 0.715343 98.2817 0.5 99.4015 0.5C99.7245 0.5 100.048 0.521534 100.371 0.564602C100.715 0.60767 101.038 0.672273 101.34 0.75841C101.641 0.823014 101.899 0.898384 102.115 0.984522V3.73015H100.5C100.026 3.73015 99.6599 3.85935 99.4015 4.11777C99.1646 4.35464 99.0462 4.70996 99.0462 5.18371V7.1218H102.115V10.3519H99.0462V24.1124H95.1054ZM104.214 4.50538V0.75841H108.155V4.50538H104.214ZM104.214 24.1124V7.1218H108.155V24.1124H104.214Z" fill="white"/>
<path d="M109.633 24.1124L115.706 15.3587L110.053 7.1218H114.833L118.193 12.3869H118.387L121.811 7.1218H126.3L120.615 15.2618L126.624 24.1124H121.907L118.128 18.2335H117.934L114.123 24.1124H109.633Z" fill="white"/>
</svg>
