<svg width="70" height="40" viewBox="0 0 70 40" fill="none" xmlns="http://www.w3.org/2000/svg">
<g clip-path="url(#clip0_16823_571)">
<path d="M37.2544 1.61598C38.1796 0.653506 39.4361 0.112793 40.7445 0.112793C46.6311 0.112793 52.1786 0.112796 57.6417 0.112807C68.6295 0.11283 74.1317 13.933 66.3622 22.0157L49.4382 39.6218C48.6613 40.4301 47.3328 39.8576 47.3328 38.7145V23.2077L49.2886 21.173C50.8425 19.5565 49.742 16.7924 47.5444 16.7924H22.666L37.2544 1.61598Z" fill="black"/>
<path d="M32.7449 38.3842C31.8198 39.3467 30.5633 39.8874 29.2549 39.8874C23.3683 39.8874 17.8208 39.8874 12.3577 39.8874C1.36983 39.8873 -4.13236 26.0672 3.63721 17.9844L20.5612 0.378369C21.3381 -0.429908 22.6666 0.142547 22.6666 1.28562L22.6667 16.7923L20.7108 18.8271C19.1569 20.4437 20.2574 23.2077 22.455 23.2077L47.3335 23.2076L32.7449 38.3842Z" fill="black"/>
</g>
<defs>
<clipPath id="clip0_16823_571">
<rect width="70" height="40" fill="white"/>
</clipPath>
</defs>
</svg>
