<svg xmlns="http://www.w3.org/2000/svg" width="1200" height="2200" viewBox="0 0 1200 2200">
  <defs>
    <style>
      .bg{fill:#fff}.panel{fill:#fff;stroke:#111;stroke-width:1.5}.soft{fill:#fafafa;stroke:#111;stroke-width:1.2}.dash{fill:#fff;stroke:#777;stroke-width:1.2;stroke-dasharray:8 6}.label{fill:#050505}.labelText{font-family:Arial,sans-serif;font-size:22px;font-weight:700;fill:#fff}.h1{font-family:Arial,sans-serif;font-size:52px;font-weight:800;fill:#111}.h2{font-family:Arial,sans-serif;font-size:28px;font-weight:800;fill:#111}.h3{font-family:Arial,sans-serif;font-size:20px;font-weight:800;fill:#111}.p{font-family:Arial,sans-serif;font-size:16px;fill:#333}.small{font-family:Arial,sans-serif;font-size:13px;fill:#444}.tiny{font-family:Arial,sans-serif;font-size:11px;fill:#555}.nav{font-family:Arial,sans-serif;font-size:14px;fill:#111}.line{stroke:#222;stroke-width:1.2;fill:none}.thin{stroke:#aaa;stroke-width:1;fill:none}.btn{fill:#fff;stroke:#111;stroke-width:1.2}.btnDark{fill:#222;stroke:#222}.btnDarkText{font-family:Arial,sans-serif;font-size:14px;font-weight:700;fill:#fff}.tag{fill:#f5f5f5;stroke:#bbb;stroke-width:1}.circle{fill:#fff;stroke:#111;stroke-width:1.2}.mutedBox{fill:#f7f7f7;stroke:#aaa;stroke-width:1}
    </style>
  </defs>
  <rect class="bg" width="1200" height="2200"/>

  <!-- 1 Header -->
  <rect class="label" x="18" y="18" width="34" height="34" rx="5"/><text class="labelText" x="35" y="42" text-anchor="middle">1</text>
  <rect class="panel" x="64" y="18" width="1086" height="74" rx="5"/>
  <rect class="soft" x="88" y="34" width="74" height="42"/><path class="line" d="M88 34l74 42M162 34L88 76"/>
  <text class="h3" x="182" y="61">Boon Chye Services</text>
  <text class="nav" x="415" y="61">Home</text><text class="nav" x="500" y="61">About</text><text class="nav" x="585" y="61">Services</text><path class="line" d="M655 56l7 7 7-7"/>
  <text class="nav" x="735" y="61">Gallery</text><path class="line" d="M732 72h58"/>
  <text class="nav" x="846" y="61">Contact Us</text>
  <rect class="btn" x="946" y="36" width="168" height="38" rx="6"/><text class="nav" x="1030" y="61" text-anchor="middle">Get a free quote</text>

  <!-- 2 Hero -->
  <rect class="label" x="18" y="112" width="34" height="34" rx="5"/><text class="labelText" x="35" y="136" text-anchor="middle">2</text>
  <rect class="panel" x="64" y="112" width="1086" height="300" rx="5"/>
  <g transform="translate(90 142)">
    <text class="nav" x="0" y="38">PROJECT GALLERY</text>
    <text class="h1" x="0" y="102">See Similar Work</text>
    <text class="h1" x="0" y="160">Before You Call</text>
    <text class="p" x="0" y="200">Browse common Boon Chye project types from the 9 source websites, then send photos for a clearer quote.</text>
    <rect class="btnDark" x="0" y="232" width="190" height="40" rx="5"/><text class="btnDarkText" x="95" y="257" text-anchor="middle">Send Project Photos</text>
    <rect class="btn" x="210" y="232" width="150" height="40" rx="5"/><text class="nav" x="285" y="257" text-anchor="middle">View Services</text>
  </g>
  <g transform="translate(665 145)">
    <rect class="dash" width="420" height="230" rx="8"/>
    <path class="thin" d="M40 176l95-72 70 50 62-82 108 104"/>
    <circle class="mutedBox" cx="330" cy="65" r="22"/>
    <text class="small" x="210" y="205" text-anchor="middle">Large featured project image</text>
  </g>

  <!-- 3 Quick Filter -->
  <rect class="label" x="18" y="438" width="34" height="34" rx="5"/><text class="labelText" x="35" y="462" text-anchor="middle">3</text>
  <rect class="panel" x="64" y="438" width="1086" height="150" rx="5"/>
  <text class="h2" x="100" y="488">Find Projects by Service</text>
  <g transform="translate(100 518)">
    <rect class="tag" width="180" height="42" rx="21"/><text class="small" x="90" y="27" text-anchor="middle">Roof Leaking</text>
    <rect class="tag" x="200" width="180" height="42" rx="21"/><text class="small" x="290" y="27" text-anchor="middle">Waterproofing</text>
    <rect class="tag" x="400" width="160" height="42" rx="21"/><text class="small" x="480" y="27" text-anchor="middle">Plumbing</text>
    <rect class="tag" x="580" width="150" height="42" rx="21"/><text class="small" x="655" y="27" text-anchor="middle">Electrical</text>
    <rect class="tag" x="750" width="150" height="42" rx="21"/><text class="small" x="825" y="27" text-anchor="middle">Renovation</text>
    <rect class="tag" x="920" width="130" height="42" rx="21"/><text class="small" x="985" y="27" text-anchor="middle">Sewerage</text>
  </g>

  <!-- 4 Featured Case Study -->
  <rect class="label" x="18" y="614" width="34" height="34" rx="5"/><text class="labelText" x="35" y="638" text-anchor="middle">4</text>
  <rect class="panel" x="64" y="614" width="1086" height="395" rx="5"/>
  <text class="h2" x="100" y="664">Featured Case Study</text>
  <text class="p" x="100" y="692">Best for showing one strong project instead of only random images.</text>
  <rect class="dash" x="100" y="725" width="450" height="230" rx="6"/>
  <path class="thin" d="M140 900l120-90 78 60 78-100 96 130"/><circle class="mutedBox" cx="455" cy="782" r="22"/>
  <g transform="translate(595 725)">
    <rect class="soft" width="490" height="230" rx="6"/>
    <text class="small" x="24" y="34">ROOF LEAKING / WATERPROOFING</text>
    <text class="h2" x="24" y="72">Roof Leak Repair in Klang Valley</text>
    <text class="p" x="24" y="110">Problem: water stains and recurring ceiling leak.</text>
    <text class="p" x="24" y="142">Work Done: inspection, roof repair, waterproofing treatment.</text>
    <text class="p" x="24" y="174">Result: leak area repaired and ready for customer follow-up.</text>
    <rect class="btnDark" x="24" y="195" width="145" height="30" rx="4"/><text class="btnDarkText" x="96" y="215" text-anchor="middle">View Details</text>
  </g>

  <!-- 5 Case Study Grid -->
  <rect class="label" x="18" y="1035" width="34" height="34" rx="5"/><text class="labelText" x="35" y="1059" text-anchor="middle">5</text>
  <rect class="panel" x="64" y="1035" width="1086" height="520" rx="5"/>
  <text class="h2" x="607" y="1080" text-anchor="middle">Project Case Study Grid</text>
  <text class="p" x="607" y="1108" text-anchor="middle">Each card uses a simple Problem → Work Done → Result structure.</text>
  <g transform="translate(100 1142)">
    <rect class="soft" width="300" height="165" rx="6"/><rect class="dash" x="14" y="14" width="110" height="90"/><text class="h3" x="142" y="42">Plumbing Repair</text><text class="tiny" x="142" y="70">Problem: leaking pipe</text><text class="tiny" x="142" y="92">Work: repair / repiping</text><text class="tiny" x="142" y="114">Result: water flow restored</text><rect class="tag" x="142" y="130" width="85" height="22" rx="11"/><text class="tiny" x="184" y="145" text-anchor="middle">Plumbing</text>
    <rect class="soft" x="342" width="300" height="165" rx="6"/><rect class="dash" x="356" y="14" width="110" height="90"/><text class="h3" x="484" y="42">Renovation</text><text class="tiny" x="484" y="70">Problem: old kitchen</text><text class="tiny" x="484" y="92">Work: cabinet / tiles</text><text class="tiny" x="484" y="114">Result: updated space</text><rect class="tag" x="484" y="130" width="90" height="22" rx="11"/><text class="tiny" x="529" y="145" text-anchor="middle">Renovation</text>
    <rect class="soft" x="684" width="300" height="165" rx="6"/><rect class="dash" x="698" y="14" width="110" height="90"/><text class="h3" x="826" y="42">Sewerage</text><text class="tiny" x="826" y="70">Problem: blockage</text><text class="tiny" x="826" y="92">Work: water jetting</text><text class="tiny" x="826" y="114">Result: cleared drain</text><rect class="tag" x="826" y="130" width="82" height="22" rx="11"/><text class="tiny" x="867" y="145" text-anchor="middle">Drainage</text>
  </g>
  <g transform="translate(100 1335)">
    <rect class="soft" width="300" height="165" rx="6"/><rect class="dash" x="14" y="14" width="110" height="90"/><text class="h3" x="142" y="42">Electrical</text><text class="tiny" x="142" y="70">Problem: wiring fault</text><text class="tiny" x="142" y="92">Work: maintenance</text><text class="tiny" x="142" y="114">Result: safer setup</text><rect class="tag" x="142" y="130" width="80" height="22" rx="11"/><text class="tiny" x="182" y="145" text-anchor="middle">Wiring</text>
    <rect class="soft" x="342" width="300" height="165" rx="6"/><rect class="dash" x="356" y="14" width="110" height="90"/><text class="h3" x="484" y="42">Waterproofing</text><text class="tiny" x="484" y="70">Problem: seepage</text><text class="tiny" x="484" y="92">Work: membrane / PU</text><text class="tiny" x="484" y="114">Result: protected area</text><rect class="tag" x="484" y="130" width="112" height="22" rx="11"/><text class="tiny" x="540" y="145" text-anchor="middle">Waterproofing</text>
    <rect class="soft" x="684" width="300" height="165" rx="6"/><rect class="dash" x="698" y="14" width="110" height="90"/><text class="h3" x="826" y="42">Roof Repair</text><text class="tiny" x="826" y="70">Problem: broken tile</text><text class="tiny" x="826" y="92">Work: roof repair</text><text class="tiny" x="826" y="114">Result: leak fixed</text><rect class="tag" x="826" y="130" width="70" height="22" rx="11"/><text class="tiny" x="861" y="145" text-anchor="middle">Roof</text>
  </g>

  <!-- 6 Before After -->
  <rect class="label" x="18" y="1580" width="34" height="34" rx="5"/><text class="labelText" x="35" y="1604" text-anchor="middle">6</text>
  <rect class="panel" x="64" y="1580" width="1086" height="245" rx="5"/>
  <text class="h2" x="100" y="1626">Before / After Gallery Strip</text>
  <text class="p" x="100" y="1654">Good for renovation, waterproofing and visible repair works.</text>
  <rect class="dash" x="100" y="1685" width="220" height="95" rx="5"/><text class="h3" x="210" y="1740" text-anchor="middle">Before</text>
  <rect class="dash" x="350" y="1685" width="220" height="95" rx="5"/><text class="h3" x="460" y="1740" text-anchor="middle">During</text>
  <rect class="dash" x="600" y="1685" width="220" height="95" rx="5"/><text class="h3" x="710" y="1740" text-anchor="middle">After</text>
  <rect class="soft" x="850" y="1685" width="235" height="95" rx="5"/><text class="small" x="968" y="1725" text-anchor="middle">CTA: Send your</text><text class="small" x="968" y="1748" text-anchor="middle">before photo</text>

  <!-- 7 Source Proof -->
  <rect class="label" x="18" y="1850" width="34" height="34" rx="5"/><text class="labelText" x="35" y="1874" text-anchor="middle">7</text>
  <rect class="panel" x="64" y="1850" width="1086" height="150" rx="5"/>
  <text class="h2" x="100" y="1897">Source Proof Row</text>
  <text class="p" x="100" y="1925">9 websites consolidated into 5 clear gallery categories.</text>
  <g transform="translate(570 1888)">
    <rect class="tag" width="90" height="38" rx="6"/><text class="small" x="45" y="25" text-anchor="middle">Roof</text>
    <rect class="tag" x="105" width="115" height="38" rx="6"/><text class="small" x="162" y="25" text-anchor="middle">Plumbing</text>
    <rect class="tag" x="235" width="110" height="38" rx="6"/><text class="small" x="290" y="25" text-anchor="middle">Electrical</text>
    <rect class="tag" x="360" width="120" height="38" rx="6"/><text class="small" x="420" y="25" text-anchor="middle">Renovation</text>
    <rect class="tag" x="495" width="115" height="38" rx="6"/><text class="small" x="552" y="25" text-anchor="middle">Sewerage</text>
  </g>

  <!-- 8 CTA -->
  <rect class="label" x="18" y="2025" width="34" height="34" rx="5"/><text class="labelText" x="35" y="2049" text-anchor="middle">8</text>
  <rect class="panel" x="64" y="2025" width="1086" height="105" rx="5"/>
  <text class="h3" x="100" y="2068">Need a Quote for Similar Work?</text>
  <text class="p" x="100" y="2096">Send photos and location to the right Boon Chye team.</text>
  <rect class="btnDark" x="780" y="2056" width="170" height="38" rx="5"/><text class="btnDarkText" x="865" y="2081" text-anchor="middle">WhatsApp Now</text>
  <rect class="btn" x="970" y="2056" width="120" height="38" rx="5"/><text class="nav" x="1030" y="2081" text-anchor="middle">Call</text>

  <!-- 9 Footer -->
  <rect class="label" x="18" y="2150" width="34" height="34" rx="5"/><text class="labelText" x="35" y="2174" text-anchor="middle">9</text>
  <rect class="panel" x="64" y="2150" width="1086" height="35" rx="5"/>
  <text class="tiny" x="607" y="2173" text-anchor="middle">Footer: About Us / Services / Contact Directory / Get In Touch / Copyright</text>
</svg>
